<svg width="556" height="197" viewBox="0 0 556 197" fill="none" xmlns="http://www.w3.org/2000/svg">
<g filter="url(#filter0_d_40_276)">
<mask id="path-1-outside-1_40_276" maskUnits="userSpaceOnUse" x="9" y="61.9914" width="536" height="116" fill="black">
<rect fill="white" x="9" y="61.9914" width="536" height="116"/>
<path d="M45.6647 122.439C51.2245 124.356 64.0695 130.299 64.4529 144.965V145.828C64.4529 153.305 61.9606 159.344 56.976 163.754C48.828 170.943 35.7913 172.477 26.2055 172.477C19.6872 172.477 14.7984 171.71 14.3191 171.71L13.3605 171.518L15.2777 66.9369L16.3321 67.0328H18.441C26.3972 67.1286 45.0896 67.4162 55.0588 78.0564C59.2766 82.5618 61.3854 88.505 61.3854 95.6943C61.3854 96.3653 61.2896 97.1322 61.2896 97.8991C60.9061 111.415 50.4576 119.467 45.6647 122.439ZM42.789 97.4198C42.5973 90.9014 38.5712 88.6008 34.7369 87.9298L35.2162 108.156C37.6126 107.197 42.5973 104.226 42.789 97.4198ZM43.5558 146.307C43.6517 145.541 43.7475 144.774 43.7475 144.007C43.7475 141.227 42.9807 138.926 41.6387 137.297C40.1049 135.475 37.9002 134.325 34.8327 133.75V137.105C34.7369 141.419 34.641 147.745 34.5452 151.004H35.5038C37.3251 151.004 40.1049 150.717 41.8304 149.375C42.8848 148.608 43.46 147.554 43.5558 146.307ZM124.334 104.226L124.43 105.184C124.526 107.197 128.073 154.455 128.073 169.026V170.559C127.977 170.943 127.881 171.326 127.498 171.614C127.114 171.997 126.251 172.764 119.062 172.764C116.474 172.764 112.927 172.668 108.23 172.381C106.696 172.285 106.6 170.464 106.505 167.013V166.15C103.916 168.93 100.178 172.573 93.4679 172.573C92.5094 172.573 91.4549 172.477 90.3046 172.285C70.7496 169.217 66.6277 126.177 66.6277 109.114V107.485L90.1129 104.993V106.335C90.1129 106.43 90.017 109.69 90.017 114.483C90.017 125.985 90.7839 146.116 95.9603 151.292C96.7271 152.059 97.494 152.442 98.3567 152.442C103.245 152.251 104.3 142.09 104.3 130.874C104.3 126.944 104.108 122.822 104.012 118.988C103.916 114.77 103.821 110.648 103.821 107.006V104.417L103.916 103.267L124.334 104.226ZM155.108 103.651C170.062 103.746 178.21 111.415 178.594 111.703L179.265 112.374L165.365 130.491L164.598 129.341C164.503 129.245 159.997 123.014 154.054 123.014C153.287 123.014 152.424 123.11 151.562 123.397C150.699 124.356 150.411 129.436 150.411 136.051C150.411 142.09 150.603 149.279 150.795 155.797C150.987 160.878 151.178 166.246 151.274 171.326V172.477L130.281 172.86V104.322L143.414 103.746L145.235 106.526C146.673 105.376 149.74 103.842 155.108 103.651ZM228.176 106.047C234.215 109.881 237.379 117.742 237.379 129.532C237.379 130.395 237.283 131.354 237.283 132.216V133.175C237.283 149.183 227.505 167.875 216.769 171.806C215.523 172.285 214.085 172.668 212.456 172.668C209.676 172.668 206.416 171.614 203.157 168.451V169.217C203.157 170.751 202.87 171.997 201.719 171.997H198.556C193.092 171.997 183.986 171.902 183.506 171.902L182.452 171.806L181.206 68.3748L204.787 67.4162L203.253 107.293C206.129 105.951 212.264 103.555 218.59 103.555C221.85 103.555 225.205 104.226 228.176 106.047ZM215.044 132.983C215.044 131.449 214.66 130.299 213.702 129.532C212.456 128.574 210.443 128.286 208.429 128.286C206.608 128.286 204.883 128.478 203.637 128.765L203.349 149.279C206.608 148.32 214.948 144.774 215.044 132.983ZM270.1 103.555H270.963C282.657 103.555 292.147 108.923 297.803 118.7C301.158 124.452 302.788 131.066 302.788 137.776C302.788 144.678 301.062 151.484 297.515 157.331C291.764 167.013 281.986 172.285 270.004 172.285H267.895C259.076 172.285 251.503 167.875 246.806 160.015C243.26 154.072 241.534 146.499 241.534 138.926C241.534 131.354 243.26 123.685 246.806 117.454C251.887 108.443 260.227 103.555 270.1 103.555ZM277.385 147.554C279.111 144.965 280.069 141.323 280.069 137.776C280.069 134.9 279.494 132.025 278.248 129.724C277.193 127.615 275.18 125.123 271.538 125.027C266.841 125.41 264.157 132.408 264.061 138.735V139.214C264.061 144.486 265.69 150.525 270.675 151.196H271.25C274.318 151.196 276.331 149.279 277.385 147.554ZM377.105 104.897V103.842L400.399 104.226L400.303 105.28C400.303 107.197 399.536 151.963 383.24 167.396C379.502 170.943 375.188 172.668 370.491 172.668H370.108C363.973 172.573 358.605 167.588 354.195 157.715C349.211 167.588 343.172 172.668 336.174 173.052C314.414 172.86 306.937 110.552 306.65 107.868L306.458 106.718L329.751 104.417L329.847 105.472C329.847 105.664 330.71 116.687 332.435 127.711C335.599 148.416 338.57 149.087 338.954 149.087C339.816 149.087 340.679 148.704 341.35 147.937C343.938 145.157 344.609 138.064 344.609 130.107C344.609 124.643 344.322 118.7 344.034 113.524C343.843 110.361 343.651 107.293 343.555 104.801V103.651H366.465V104.801C366.465 106.43 366.561 108.06 366.561 109.69C366.561 115.249 366.273 120.809 366.082 125.89C365.986 129.916 365.794 133.846 365.794 137.297C365.794 143.24 366.177 147.841 367.711 149.375C368.095 149.758 368.478 149.854 368.957 149.854H369.053C369.628 149.854 370.012 149.662 370.587 149.087C375.955 143.815 377.105 115.441 377.105 104.897ZM440.18 103.555H460.502L461.365 172.477L438.838 172.86L439.125 168.93C435.866 170.464 430.402 172.764 424.651 172.764C421.583 172.764 418.42 172.093 415.449 170.368C407.78 165.862 403.466 154.743 402.891 137.393C402.891 136.242 402.795 135.188 402.795 134.133C402.795 118.029 407.013 107.964 415.353 104.322C417.845 103.267 420.433 102.788 422.925 102.788C430.019 102.788 436.825 106.047 439.796 108.06L440.18 103.555ZM439.605 149.471L439.988 127.711C439.796 127.711 439.605 127.711 439.509 127.615C438.454 127.519 437.208 127.327 435.962 127.327C434.141 127.327 432.415 127.615 430.978 128.765C429.252 130.299 428.293 132.983 428.102 136.913C428.293 142.281 429.636 146.02 432.128 148.033C433.566 149.087 435.291 149.662 437.4 149.662C438.071 149.662 438.838 149.567 439.605 149.471ZM499.971 102.788C511.665 104.322 517.417 122.726 517.417 159.057C517.417 162.891 517.321 166.917 517.225 171.135V172.189L495.082 172.093V165.862C495.082 161.741 495.082 157.715 495.178 153.688C495.274 150.046 495.369 146.403 495.369 142.952C495.369 133.079 494.698 124.931 491.631 122.726C491.056 122.343 490.385 122.055 489.618 122.055C489.139 122.055 488.659 122.151 488.084 122.343C487.701 122.63 486.263 124.452 485.688 138.255C485.4 144.007 485.304 150.525 485.304 156.372C485.304 159.344 485.4 162.124 485.4 164.616V171.902H463.257L464.311 103.938L481.566 103.842L482.812 107.197C485.496 105.855 492.59 102.692 498.245 102.692C498.82 102.692 499.395 102.692 499.971 102.788ZM530.519 70.4836C533.203 70.4836 535.791 71.5381 537.708 73.4552C539.625 75.3724 540.68 77.8647 540.68 80.5487C540.68 83.2328 539.625 85.8209 537.708 87.7381C535.791 89.6553 533.203 90.7097 530.519 90.7097C524.959 90.7097 520.454 86.1085 520.454 80.5487C520.454 74.989 524.959 70.4836 530.519 70.4836Z"/>
</mask>
<path d="M45.6647 122.439C51.2245 124.356 64.0695 130.299 64.4529 144.965V145.828C64.4529 153.305 61.9606 159.344 56.976 163.754C48.828 170.943 35.7913 172.477 26.2055 172.477C19.6872 172.477 14.7984 171.71 14.3191 171.71L13.3605 171.518L15.2777 66.9369L16.3321 67.0328H18.441C26.3972 67.1286 45.0896 67.4162 55.0588 78.0564C59.2766 82.5618 61.3854 88.505 61.3854 95.6943C61.3854 96.3653 61.2896 97.1322 61.2896 97.8991C60.9061 111.415 50.4576 119.467 45.6647 122.439ZM42.789 97.4198C42.5973 90.9014 38.5712 88.6008 34.7369 87.9298L35.2162 108.156C37.6126 107.197 42.5973 104.226 42.789 97.4198ZM43.5558 146.307C43.6517 145.541 43.7475 144.774 43.7475 144.007C43.7475 141.227 42.9807 138.926 41.6387 137.297C40.1049 135.475 37.9002 134.325 34.8327 133.75V137.105C34.7369 141.419 34.641 147.745 34.5452 151.004H35.5038C37.3251 151.004 40.1049 150.717 41.8304 149.375C42.8848 148.608 43.46 147.554 43.5558 146.307ZM124.334 104.226L124.43 105.184C124.526 107.197 128.073 154.455 128.073 169.026V170.559C127.977 170.943 127.881 171.326 127.498 171.614C127.114 171.997 126.251 172.764 119.062 172.764C116.474 172.764 112.927 172.668 108.23 172.381C106.696 172.285 106.6 170.464 106.505 167.013V166.15C103.916 168.93 100.178 172.573 93.4679 172.573C92.5094 172.573 91.4549 172.477 90.3046 172.285C70.7496 169.217 66.6277 126.177 66.6277 109.114V107.485L90.1129 104.993V106.335C90.1129 106.43 90.017 109.69 90.017 114.483C90.017 125.985 90.7839 146.116 95.9603 151.292C96.7271 152.059 97.494 152.442 98.3567 152.442C103.245 152.251 104.3 142.09 104.3 130.874C104.3 126.944 104.108 122.822 104.012 118.988C103.916 114.77 103.821 110.648 103.821 107.006V104.417L103.916 103.267L124.334 104.226ZM155.108 103.651C170.062 103.746 178.21 111.415 178.594 111.703L179.265 112.374L165.365 130.491L164.598 129.341C164.503 129.245 159.997 123.014 154.054 123.014C153.287 123.014 152.424 123.11 151.562 123.397C150.699 124.356 150.411 129.436 150.411 136.051C150.411 142.09 150.603 149.279 150.795 155.797C150.987 160.878 151.178 166.246 151.274 171.326V172.477L130.281 172.86V104.322L143.414 103.746L145.235 106.526C146.673 105.376 149.74 103.842 155.108 103.651ZM228.176 106.047C234.215 109.881 237.379 117.742 237.379 129.532C237.379 130.395 237.283 131.354 237.283 132.216V133.175C237.283 149.183 227.505 167.875 216.769 171.806C215.523 172.285 214.085 172.668 212.456 172.668C209.676 172.668 206.416 171.614 203.157 168.451V169.217C203.157 170.751 202.87 171.997 201.719 171.997H198.556C193.092 171.997 183.986 171.902 183.506 171.902L182.452 171.806L181.206 68.3748L204.787 67.4162L203.253 107.293C206.129 105.951 212.264 103.555 218.59 103.555C221.85 103.555 225.205 104.226 228.176 106.047ZM215.044 132.983C215.044 131.449 214.66 130.299 213.702 129.532C212.456 128.574 210.443 128.286 208.429 128.286C206.608 128.286 204.883 128.478 203.637 128.765L203.349 149.279C206.608 148.32 214.948 144.774 215.044 132.983ZM270.1 103.555H270.963C282.657 103.555 292.147 108.923 297.803 118.7C301.158 124.452 302.788 131.066 302.788 137.776C302.788 144.678 301.062 151.484 297.515 157.331C291.764 167.013 281.986 172.285 270.004 172.285H267.895C259.076 172.285 251.503 167.875 246.806 160.015C243.26 154.072 241.534 146.499 241.534 138.926C241.534 131.354 243.26 123.685 246.806 117.454C251.887 108.443 260.227 103.555 270.1 103.555ZM277.385 147.554C279.111 144.965 280.069 141.323 280.069 137.776C280.069 134.9 279.494 132.025 278.248 129.724C277.193 127.615 275.18 125.123 271.538 125.027C266.841 125.41 264.157 132.408 264.061 138.735V139.214C264.061 144.486 265.69 150.525 270.675 151.196H271.25C274.318 151.196 276.331 149.279 277.385 147.554ZM377.105 104.897V103.842L400.399 104.226L400.303 105.28C400.303 107.197 399.536 151.963 383.24 167.396C379.502 170.943 375.188 172.668 370.491 172.668H370.108C363.973 172.573 358.605 167.588 354.195 157.715C349.211 167.588 343.172 172.668 336.174 173.052C314.414 172.86 306.937 110.552 306.65 107.868L306.458 106.718L329.751 104.417L329.847 105.472C329.847 105.664 330.71 116.687 332.435 127.711C335.599 148.416 338.57 149.087 338.954 149.087C339.816 149.087 340.679 148.704 341.35 147.937C343.938 145.157 344.609 138.064 344.609 130.107C344.609 124.643 344.322 118.7 344.034 113.524C343.843 110.361 343.651 107.293 343.555 104.801V103.651H366.465V104.801C366.465 106.43 366.561 108.06 366.561 109.69C366.561 115.249 366.273 120.809 366.082 125.89C365.986 129.916 365.794 133.846 365.794 137.297C365.794 143.24 366.177 147.841 367.711 149.375C368.095 149.758 368.478 149.854 368.957 149.854H369.053C369.628 149.854 370.012 149.662 370.587 149.087C375.955 143.815 377.105 115.441 377.105 104.897ZM440.18 103.555H460.502L461.365 172.477L438.838 172.86L439.125 168.93C435.866 170.464 430.402 172.764 424.651 172.764C421.583 172.764 418.42 172.093 415.449 170.368C407.78 165.862 403.466 154.743 402.891 137.393C402.891 136.242 402.795 135.188 402.795 134.133C402.795 118.029 407.013 107.964 415.353 104.322C417.845 103.267 420.433 102.788 422.925 102.788C430.019 102.788 436.825 106.047 439.796 108.06L440.18 103.555ZM439.605 149.471L439.988 127.711C439.796 127.711 439.605 127.711 439.509 127.615C438.454 127.519 437.208 127.327 435.962 127.327C434.141 127.327 432.415 127.615 430.978 128.765C429.252 130.299 428.293 132.983 428.102 136.913C428.293 142.281 429.636 146.02 432.128 148.033C433.566 149.087 435.291 149.662 437.4 149.662C438.071 149.662 438.838 149.567 439.605 149.471ZM499.971 102.788C511.665 104.322 517.417 122.726 517.417 159.057C517.417 162.891 517.321 166.917 517.225 171.135V172.189L495.082 172.093V165.862C495.082 161.741 495.082 157.715 495.178 153.688C495.274 150.046 495.369 146.403 495.369 142.952C495.369 133.079 494.698 124.931 491.631 122.726C491.056 122.343 490.385 122.055 489.618 122.055C489.139 122.055 488.659 122.151 488.084 122.343C487.701 122.63 486.263 124.452 485.688 138.255C485.4 144.007 485.304 150.525 485.304 156.372C485.304 159.344 485.4 162.124 485.4 164.616V171.902H463.257L464.311 103.938L481.566 103.842L482.812 107.197C485.496 105.855 492.59 102.692 498.245 102.692C498.82 102.692 499.395 102.692 499.971 102.788ZM530.519 70.4836C533.203 70.4836 535.791 71.5381 537.708 73.4552C539.625 75.3724 540.68 77.8647 540.68 80.5487C540.68 83.2328 539.625 85.8209 537.708 87.7381C535.791 89.6553 533.203 90.7097 530.519 90.7097C524.959 90.7097 520.454 86.1085 520.454 80.5487C520.454 74.989 524.959 70.4836 530.519 70.4836Z" fill="#F29846"/>
<path d="M45.6647 122.439L43.557 119.039L36.4013 123.476L44.3607 126.22L45.6647 122.439ZM64.4529 144.965H68.4529V144.913L68.4515 144.861L64.4529 144.965ZM56.976 163.754L59.6225 166.753L59.6263 166.75L56.976 163.754ZM14.3191 171.71L13.5346 175.632L13.923 175.71H14.3191V171.71ZM13.3605 171.518L9.36121 171.445L9.29997 174.785L12.5761 175.44L13.3605 171.518ZM15.2777 66.9369L15.6399 62.9533L11.3572 62.564L11.2784 66.8636L15.2777 66.9369ZM16.3321 67.0328L15.97 71.0163L16.1507 71.0328H16.3321V67.0328ZM18.441 67.0328L18.4892 63.033L18.4651 63.0328H18.441V67.0328ZM55.0588 78.0564L57.9789 75.3227L57.9778 75.3215L55.0588 78.0564ZM61.2896 97.8991L65.288 98.0125L65.2896 97.9558V97.8991H61.2896ZM42.789 97.4198L46.7874 97.5324L46.7906 97.4173L46.7872 97.3022L42.789 97.4198ZM34.7369 87.9298L35.4264 83.9897L30.6225 83.149L30.738 88.0246L34.7369 87.9298ZM35.2162 108.156L31.2173 108.251L31.3538 114.009L36.7017 111.87L35.2162 108.156ZM43.5558 146.307L39.5867 145.811L39.5749 145.906L39.5676 146.001L43.5558 146.307ZM41.6387 137.297L44.7264 134.754L44.7124 134.737L44.6983 134.72L41.6387 137.297ZM34.8327 133.75L35.5699 129.818L30.8327 128.93V133.75H34.8327ZM34.8327 137.105L38.8318 137.194L38.8327 137.149V137.105H34.8327ZM34.5452 151.004L30.5469 150.887L30.4258 155.004H34.5452V151.004ZM41.8304 149.375L39.4777 146.14L39.4255 146.178L39.3746 146.217L41.8304 149.375ZM44.3607 126.22C49.782 128.09 60.1439 133.199 60.4543 145.07L68.4515 144.861C67.995 127.4 52.667 120.622 46.9687 118.657L44.3607 126.22ZM60.4529 144.965V145.828H68.4529V144.965H60.4529ZM60.4529 145.828C60.4529 152.335 58.3289 157.216 54.3257 160.758L59.6263 166.75C65.5923 161.472 68.4529 154.276 68.4529 145.828H60.4529ZM54.3295 160.754C47.3753 166.89 35.6945 168.477 26.2055 168.477V176.477C35.8881 176.477 50.2807 174.996 59.6225 166.753L54.3295 160.754ZM26.2055 168.477C23.0996 168.477 20.3739 168.294 18.3619 168.11C17.3571 168.018 16.5315 167.926 15.9172 167.856C15.6205 167.822 15.3404 167.789 15.1338 167.766C15.0309 167.755 14.6479 167.71 14.3191 167.71V175.71C14.1102 175.71 13.9847 175.688 14.2665 175.719C14.4444 175.739 14.6758 175.766 15.0067 175.804C15.6475 175.877 16.5414 175.977 17.6335 176.077C19.8152 176.276 22.7931 176.477 26.2055 176.477V168.477ZM15.1036 167.787L14.145 167.596L12.5761 175.44L13.5346 175.632L15.1036 167.787ZM17.3599 171.591L19.277 67.0102L11.2784 66.8636L9.36121 171.445L17.3599 171.591ZM14.9155 70.9205L15.97 71.0163L16.6943 63.0492L15.6399 62.9533L14.9155 70.9205ZM16.3321 71.0328H18.441V63.0328H16.3321V71.0328ZM18.3928 71.0325C22.3674 71.0803 28.6896 71.1792 35.1936 72.5093C41.7521 73.8506 47.973 76.3441 52.1398 80.7913L57.9778 75.3215C52.1753 69.1285 44.0655 66.1581 36.7965 64.6716C29.4729 63.1739 22.4709 63.081 18.4892 63.033L18.3928 71.0325ZM52.1387 80.7901C55.5399 84.4232 57.3854 89.3251 57.3854 95.6943H65.3854C65.3854 87.6848 63.0133 80.7004 57.9789 75.3227L52.1387 80.7901ZM57.3854 95.6943C57.3854 95.8743 57.3722 96.0935 57.3458 96.5032C57.3227 96.862 57.2896 97.3683 57.2896 97.8991H65.2896C65.2896 97.6629 65.3044 97.4024 65.3292 97.0183C65.3507 96.6851 65.3854 96.1853 65.3854 95.6943H57.3854ZM57.2912 97.7856C56.9683 109.168 48.1016 116.221 43.557 119.039L47.7725 125.838C52.8136 122.713 64.844 113.662 65.288 98.0125L57.2912 97.7856ZM46.7872 97.3022C46.6657 93.1701 45.2841 89.9246 42.9231 87.6197C40.6455 85.3964 37.8265 84.4097 35.4264 83.9897L34.0474 91.8699C35.4816 92.1209 36.5928 92.62 37.3348 93.3443C37.9932 93.9871 38.7205 95.151 38.7907 97.5374L46.7872 97.3022ZM30.738 88.0246L31.2173 108.251L39.2151 108.061L38.7358 87.8351L30.738 88.0246ZM36.7017 111.87C39.7177 110.663 46.5294 106.689 46.7874 97.5324L38.7906 97.3071C38.6651 101.762 35.5076 103.731 33.7306 104.442L36.7017 111.87ZM47.5249 146.804C47.6154 146.08 47.7475 145.065 47.7475 144.007H39.7475C39.7475 144.483 39.688 145.001 39.5867 145.811L47.5249 146.804ZM47.7475 144.007C47.7475 140.51 46.7798 137.247 44.7264 134.754L38.551 139.84C39.1816 140.605 39.7475 141.943 39.7475 144.007H47.7475ZM44.6983 134.72C42.408 132 39.2622 130.511 35.5699 129.818L34.0956 137.681C36.5382 138.139 37.8019 138.95 38.579 139.873L44.6983 134.72ZM30.8327 133.75V137.105H38.8327V133.75H30.8327ZM30.8337 137.016C30.7365 141.392 30.6424 147.639 30.5469 150.887L38.5434 151.122C38.6396 147.852 38.7373 141.446 38.8318 137.194L30.8337 137.016ZM34.5452 155.004H35.5038V147.004H34.5452V155.004ZM35.5038 155.004C36.6 155.004 38.0411 154.92 39.5271 154.607C40.97 154.303 42.7552 153.723 44.2862 152.532L39.3746 146.217C39.1802 146.369 38.7126 146.603 37.879 146.779C37.0883 146.945 36.2288 147.004 35.5038 147.004V155.004ZM44.1831 152.61C46.1868 151.153 47.3584 149.027 47.5441 146.614L39.5676 146.001C39.5639 146.049 39.5573 146.074 39.5557 146.079C39.5542 146.084 39.5551 146.08 39.5598 146.071C39.5644 146.063 39.5664 146.062 39.5592 146.07C39.5515 146.079 39.5278 146.103 39.4777 146.14L44.1831 152.61ZM124.334 104.226L128.314 103.828L127.971 100.392L124.522 100.23L124.334 104.226ZM124.43 105.184L128.426 104.994L128.421 104.89L128.41 104.786L124.43 105.184ZM128.073 170.559L131.953 171.53L132.073 171.052V170.559H128.073ZM127.498 171.614L125.098 168.414L124.87 168.584L124.669 168.785L127.498 171.614ZM108.23 172.381L107.981 176.373L107.986 176.373L108.23 172.381ZM106.505 167.013H102.505V167.068L102.506 167.124L106.505 167.013ZM106.505 166.15H110.505V155.984L103.577 163.424L106.505 166.15ZM90.3046 172.285L90.9622 168.339L90.9434 168.336L90.9245 168.333L90.3046 172.285ZM66.6277 107.485L66.2056 103.507L62.6277 103.887V107.485H66.6277ZM90.1129 104.993H94.1129V100.546L89.6908 101.015L90.1129 104.993ZM95.9603 151.292L93.1318 154.12L93.1318 154.12L95.9603 151.292ZM98.3567 152.442V156.442H98.4351L98.5134 156.439L98.3567 152.442ZM104.012 118.988L100.013 119.079L100.014 119.088L104.012 118.988ZM103.821 104.417L99.8344 104.085L99.8206 104.251V104.417H103.821ZM103.916 103.267L104.104 99.2715L100.251 99.0906L99.9303 102.935L103.916 103.267ZM120.354 104.624L120.45 105.582L128.41 104.786L128.314 103.828L120.354 104.624ZM120.435 105.375C120.547 107.728 124.073 154.55 124.073 169.026H132.073C132.073 154.361 128.505 106.666 128.426 104.994L120.435 105.375ZM124.073 169.026V170.559H132.073V169.026H124.073ZM124.192 169.589C124.164 169.701 124.163 169.703 124.167 169.691C124.174 169.667 124.205 169.567 124.268 169.431C124.418 169.11 124.685 168.723 125.098 168.414L129.898 174.814C131.548 173.576 131.882 171.814 131.953 171.53L124.192 169.589ZM124.669 168.785C124.658 168.797 124.743 168.71 124.868 168.613C124.997 168.513 125.117 168.44 125.214 168.391C125.384 168.304 125.384 168.341 125.024 168.415C124.265 168.572 122.576 168.764 119.062 168.764V176.764C122.738 176.764 125.074 176.573 126.64 176.25C127.442 176.085 128.179 175.858 128.843 175.52C129.602 175.134 130.066 174.702 130.326 174.442L124.669 168.785ZM119.062 168.764C116.569 168.764 113.105 168.672 108.475 168.388L107.986 176.373C112.749 176.665 116.378 176.764 119.062 176.764V168.764ZM108.48 168.389C108.683 168.401 108.985 168.451 109.328 168.602C109.681 168.757 109.987 168.979 110.227 169.232C110.67 169.698 110.739 170.103 110.706 169.973C110.679 169.867 110.63 169.589 110.589 169.012C110.55 168.453 110.527 167.775 110.503 166.902L102.506 167.124C102.549 168.672 102.589 170.51 102.951 171.937C103.145 172.706 103.532 173.799 104.426 174.741C105.436 175.804 106.724 176.294 107.981 176.373L108.48 168.389ZM110.505 167.013V166.15H102.505V167.013H110.505ZM103.577 163.424C101.156 166.025 98.4268 168.573 93.4679 168.573V176.573C101.929 176.573 106.677 171.835 109.432 168.876L103.577 163.424ZM93.4679 168.573C92.7708 168.573 91.94 168.502 90.9622 168.339L89.647 176.231C90.9699 176.451 92.2479 176.573 93.4679 176.573V168.573ZM90.9245 168.333C87.5536 167.804 84.4787 165.519 81.6897 161.31C78.8965 157.095 76.6864 151.368 75.0027 144.935C71.6413 132.093 70.6277 117.43 70.6277 109.114H62.6277C62.6277 117.861 63.675 133.251 67.2634 146.961C69.0545 153.804 71.5414 160.479 75.021 165.729C78.5047 170.987 83.2781 175.232 89.6848 176.237L90.9245 168.333ZM70.6277 109.114V107.485H62.6277V109.114H70.6277ZM67.0498 111.463L90.535 108.97L89.6908 101.015L66.2056 103.507L67.0498 111.463ZM86.1129 104.993V106.335H94.1129V104.993H86.1129ZM86.1129 106.335C86.1129 106.298 86.1097 106.411 86.099 106.883C86.0898 107.283 86.0777 107.858 86.0655 108.58C86.0413 110.024 86.017 112.06 86.017 114.483H94.017C94.017 112.112 94.0408 110.122 94.0644 108.714C94.0864 107.409 94.1129 106.416 94.1129 106.335H86.1129ZM86.017 114.483C86.017 120.293 86.2093 128.381 87.075 135.728C87.5072 139.395 88.1198 142.991 89.0022 146.075C89.8454 149.021 91.0894 152.078 93.1318 154.12L98.7887 148.464C98.2429 147.918 97.4499 146.517 96.6935 143.874C95.9763 141.368 95.4266 138.242 95.02 134.792C94.2083 127.903 94.017 120.175 94.017 114.483H86.017ZM93.1318 154.12C94.3921 155.381 96.1182 156.442 98.3567 156.442V148.442C98.4412 148.442 98.537 148.452 98.636 148.475C98.7343 148.498 98.813 148.529 98.8676 148.555C98.9711 148.606 98.9433 148.618 98.7887 148.464L93.1318 154.12ZM98.5134 156.439C101.358 156.328 103.381 154.69 104.654 152.82C105.857 151.053 106.585 148.842 107.068 146.654C108.042 142.235 108.3 136.522 108.3 130.874H100.3C100.3 136.442 100.03 141.417 99.2555 144.931C98.8633 146.709 98.4108 147.775 98.0415 148.317C97.7421 148.757 97.8 148.461 98.2 148.445L98.5134 156.439ZM108.3 130.874C108.3 126.883 108.104 122.598 108.011 118.888L100.014 119.088C100.113 123.047 100.3 127.006 100.3 130.874H108.3ZM108.011 118.897C107.915 114.665 107.821 110.593 107.821 107.006H99.8206C99.8206 110.703 99.9178 114.875 100.013 119.079L108.011 118.897ZM107.821 107.006V104.417H99.8206V107.006H107.821ZM107.807 104.75L107.903 103.599L99.9303 102.935L99.8344 104.085L107.807 104.75ZM103.729 107.263L124.147 108.221L124.522 100.23L104.104 99.2715L103.729 107.263ZM155.108 103.651L155.134 99.6506L155.05 99.6501L154.966 99.6531L155.108 103.651ZM178.594 111.703L181.422 108.874L181.221 108.673L180.994 108.503L178.594 111.703ZM179.265 112.374L182.438 114.808L184.573 112.025L182.093 109.545L179.265 112.374ZM165.365 130.491L162.037 132.71L165.137 137.36L168.539 132.926L165.365 130.491ZM164.598 129.341L167.927 127.122L167.707 126.792L167.427 126.512L164.598 129.341ZM151.562 123.397L150.297 119.603L149.295 119.937L148.589 120.721L151.562 123.397ZM150.795 155.797L146.797 155.915L146.797 155.932L146.798 155.948L150.795 155.797ZM151.274 171.326H155.274V171.289L155.273 171.251L151.274 171.326ZM151.274 172.477L151.347 176.476L155.274 176.404V172.477H151.274ZM130.281 172.86H126.281V176.934L130.354 176.859L130.281 172.86ZM130.281 104.322L130.106 100.325L126.281 100.493V104.322H130.281ZM143.414 103.746L146.76 101.554L145.512 99.6507L143.239 99.7502L143.414 103.746ZM145.235 106.526L141.889 108.718L144.299 112.397L147.734 109.65L145.235 106.526ZM155.083 107.65C168.575 107.737 175.759 114.577 176.194 114.903L180.994 108.503C181.053 108.547 178.478 106.201 174.095 104.023C169.683 101.83 163.311 99.703 155.134 99.6506L155.083 107.65ZM175.765 114.531L176.436 115.202L182.093 109.545L181.422 108.874L175.765 114.531ZM176.091 109.939L162.192 128.056L168.539 132.926L182.438 114.808L176.091 109.939ZM168.693 128.272L167.927 127.122L161.27 131.559L162.037 132.71L168.693 128.272ZM167.427 126.512C167.533 126.618 167.609 126.707 167.625 126.726C167.654 126.76 167.676 126.786 167.686 126.798C167.697 126.812 167.706 126.822 167.709 126.827C167.714 126.832 167.717 126.836 167.717 126.837C167.718 126.837 167.716 126.835 167.709 126.826C167.701 126.816 167.695 126.809 167.683 126.793C167.639 126.736 167.57 126.649 167.482 126.539C167.306 126.319 167.057 126.017 166.742 125.661C166.117 124.955 165.215 124.016 164.082 123.07C161.908 121.256 158.398 119.014 154.054 119.014V127.014C155.653 127.014 157.368 127.887 158.956 129.213C159.704 129.836 160.318 130.473 160.75 130.962C160.964 131.204 161.129 131.404 161.241 131.543C161.297 131.613 161.341 131.669 161.376 131.714C161.389 131.731 161.416 131.766 161.436 131.791C161.446 131.804 161.468 131.832 161.495 131.865C161.509 131.882 161.534 131.912 161.565 131.948C161.584 131.97 161.662 132.061 161.77 132.169L167.427 126.512ZM154.054 119.014C152.966 119.014 151.659 119.149 150.297 119.603L152.827 127.192C153.19 127.071 153.609 127.014 154.054 127.014V119.014ZM148.589 120.721C147.99 121.386 147.678 122.112 147.515 122.553C147.33 123.05 147.2 123.563 147.101 124.036C146.905 124.983 146.772 126.1 146.676 127.28C146.483 129.658 146.411 132.709 146.411 136.051H154.411C154.411 132.778 154.483 129.981 154.65 127.926C154.734 126.89 154.834 126.144 154.935 125.662C154.985 125.42 155.018 125.328 155.014 125.337C155.011 125.346 154.985 125.417 154.925 125.528C154.868 125.633 154.747 125.838 154.535 126.073L148.589 120.721ZM146.411 136.051C146.411 142.156 146.605 149.401 146.797 155.915L154.793 155.68C154.601 149.157 154.411 142.023 154.411 136.051H146.411ZM146.798 155.948C146.989 161.028 147.18 166.363 147.275 171.402L155.273 171.251C155.177 166.129 154.984 160.728 154.792 155.647L146.798 155.948ZM147.274 171.326V172.477H155.274V171.326H147.274ZM151.201 168.477L130.208 168.861L130.354 176.859L151.347 176.476L151.201 168.477ZM134.281 172.86V104.322H126.281V172.86H134.281ZM130.456 108.318L143.589 107.743L143.239 99.7502L130.106 100.325L130.456 108.318ZM140.068 105.939L141.889 108.718L148.581 104.334L146.76 101.554L140.068 105.939ZM147.734 109.65C148.388 109.127 150.585 107.815 155.251 107.648L154.966 99.6531C148.895 99.8699 144.958 101.625 142.736 103.403L147.734 109.65ZM228.176 106.047L230.32 102.67L230.294 102.653L230.267 102.637L228.176 106.047ZM216.769 171.806L215.394 168.049L215.364 168.061L215.333 168.072L216.769 171.806ZM203.157 168.451L205.943 165.58L199.157 158.994V168.451H203.157ZM183.506 171.902L183.144 175.885L183.325 175.902H183.506V171.902ZM182.452 171.806L178.452 171.854L178.496 175.462L182.09 175.789L182.452 171.806ZM181.206 68.3748L181.043 64.3781L177.159 64.536L177.206 68.423L181.206 68.3748ZM204.787 67.4162L208.784 67.5699L208.95 63.2436L204.624 63.4195L204.787 67.4162ZM203.253 107.293L199.256 107.139L199.004 113.69L204.945 110.918L203.253 107.293ZM215.044 132.983L219.044 133.016L219.044 132.999V132.983H215.044ZM213.702 129.532L216.2 126.409L216.171 126.385L216.141 126.362L213.702 129.532ZM203.637 128.765L202.737 124.868L199.681 125.573L199.637 128.709L203.637 128.765ZM203.349 149.279L199.349 149.223L199.273 154.647L204.478 153.116L203.349 149.279ZM226.032 109.424C230.341 112.159 233.379 118.252 233.379 129.532H241.379C241.379 117.231 238.09 107.603 230.32 102.67L226.032 109.424ZM233.379 129.532C233.379 129.839 233.361 130.187 233.336 130.664C233.313 131.097 233.283 131.661 233.283 132.216H241.283C241.283 131.909 241.3 131.562 241.325 131.084C241.348 130.651 241.379 130.088 241.379 129.532H233.379ZM233.283 132.216V133.175H241.283V132.216H233.283ZM233.283 133.175C233.283 140.434 231.044 148.473 227.515 155.151C223.912 161.97 219.393 166.585 215.394 168.049L218.144 175.562C224.881 173.096 230.619 166.4 234.589 158.888C238.632 151.236 241.283 141.924 241.283 133.175H233.283ZM215.333 168.072C214.382 168.438 213.446 168.668 212.456 168.668V176.668C214.725 176.668 216.664 176.132 218.205 175.539L215.333 168.072ZM212.456 168.668C210.785 168.668 208.507 168.069 205.943 165.58L200.371 171.321C204.326 175.159 208.566 176.668 212.456 176.668V168.668ZM199.157 168.451V169.217H207.157V168.451H199.157ZM199.157 169.217C199.157 169.487 199.144 169.663 199.13 169.763C199.115 169.877 199.112 169.796 199.193 169.607C199.278 169.41 199.511 168.965 200.038 168.573C200.61 168.146 201.237 167.997 201.719 167.997V175.997C202.777 175.997 203.871 175.693 204.821 174.985C205.725 174.311 206.246 173.459 206.546 172.758C207.097 171.473 207.157 170.094 207.157 169.217H199.157ZM201.719 167.997H198.556V175.997H201.719V167.997ZM198.556 167.997C195.841 167.997 192.213 167.974 189.194 167.95C186.207 167.926 183.767 167.902 183.506 167.902V175.902C183.506 175.902 183.507 175.901 183.51 175.902C183.512 175.902 183.515 175.902 183.519 175.902C183.528 175.902 183.539 175.902 183.553 175.902C183.581 175.902 183.619 175.902 183.665 175.902C183.757 175.903 183.88 175.904 184.032 175.905C184.337 175.908 184.752 175.912 185.256 175.916C186.263 175.925 187.618 175.937 189.13 175.949C192.151 175.973 195.807 175.997 198.556 175.997V167.997ZM183.869 167.918L182.814 167.822L182.09 175.789L183.144 175.885L183.869 167.918ZM186.452 171.757L185.206 68.3266L177.206 68.423L178.452 171.854L186.452 171.757ZM181.368 72.3715L204.949 71.4129L204.624 63.4195L181.043 64.3781L181.368 72.3715ZM200.79 67.2625L199.256 107.139L207.25 107.447L208.784 67.5699L200.79 67.2625ZM204.945 110.918C207.628 109.666 213.132 107.555 218.59 107.555V99.5547C211.396 99.5547 204.63 102.236 201.562 103.668L204.945 110.918ZM218.59 107.555C221.319 107.555 223.899 108.117 226.086 109.457L230.267 102.637C226.51 100.334 222.38 99.5547 218.59 99.5547V107.555ZM219.044 132.983C219.044 130.811 218.482 128.234 216.2 126.409L211.203 132.656C211.158 132.62 211.105 132.567 211.058 132.5C211.012 132.435 210.991 132.387 210.987 132.375C210.984 132.366 210.999 132.403 211.014 132.505C211.03 132.608 211.044 132.763 211.044 132.983H219.044ZM216.141 126.362C213.754 124.526 210.529 124.286 208.429 124.286V132.286C209.268 132.286 209.978 132.348 210.529 132.464C211.106 132.585 211.285 132.72 211.263 132.703L216.141 126.362ZM208.429 124.286C206.366 124.286 204.332 124.5 202.737 124.868L204.536 132.663C205.433 132.456 206.85 132.286 208.429 132.286V124.286ZM199.637 128.709L199.349 149.223L207.349 149.335L207.636 128.821L199.637 128.709ZM204.478 153.116C206.453 152.536 210.046 151.156 213.197 148.035C216.452 144.812 218.987 139.968 219.044 133.016L211.044 132.951C211.004 137.789 209.322 140.614 207.568 142.351C205.711 144.19 203.505 145.064 202.22 145.442L204.478 153.116ZM297.803 118.7L294.34 120.703L294.344 120.709L294.348 120.716L297.803 118.7ZM297.515 157.331L294.095 155.257L294.086 155.272L294.076 155.288L297.515 157.331ZM246.806 160.015L243.372 162.065L243.373 162.067L246.806 160.015ZM246.806 117.454L250.283 119.433L250.287 119.426L250.291 119.419L246.806 117.454ZM277.385 147.554L274.057 145.335L274.013 145.4L273.972 145.468L277.385 147.554ZM278.248 129.724L274.67 131.513L274.699 131.571L274.731 131.629L278.248 129.724ZM271.538 125.027L271.643 121.028L271.427 121.023L271.212 121.04L271.538 125.027ZM264.061 138.735L260.061 138.674L260.061 138.704V138.735H264.061ZM270.675 151.196L270.141 155.16L270.407 155.196H270.675V151.196ZM270.1 107.555H270.963V99.5547H270.1V107.555ZM270.963 107.555C281.286 107.555 289.428 112.21 294.34 120.703L301.265 116.697C294.867 105.635 284.028 99.5547 270.963 99.5547V107.555ZM294.348 120.716C297.313 125.799 298.788 131.706 298.788 137.776H306.788C306.788 130.426 305.003 123.104 301.258 116.685L294.348 120.716ZM298.788 137.776C298.788 144.021 297.226 150.095 294.095 155.257L300.935 159.406C304.898 152.872 306.788 145.335 306.788 137.776H298.788ZM294.076 155.288C289.108 163.651 280.702 168.285 270.004 168.285V176.285C283.27 176.285 294.419 170.375 300.954 159.374L294.076 155.288ZM270.004 168.285H267.895V176.285H270.004V168.285ZM267.895 168.285C260.55 168.285 254.25 164.674 250.24 157.963L243.373 162.067C248.757 171.077 257.602 176.285 267.895 176.285V168.285ZM250.241 157.965C247.144 152.775 245.534 145.95 245.534 138.926H237.534C237.534 147.049 239.376 155.369 243.372 162.065L250.241 157.965ZM245.534 138.926C245.534 131.915 247.139 124.955 250.283 119.433L243.33 115.475C239.38 122.415 237.534 130.793 237.534 138.926H245.534ZM250.291 119.419C254.684 111.626 261.715 107.555 270.1 107.555V99.5547C258.738 99.5547 249.089 105.261 243.322 115.49L250.291 119.419ZM280.713 149.772C282.962 146.399 284.069 141.943 284.069 137.776H276.069C276.069 140.702 275.259 143.531 274.057 145.335L280.713 149.772ZM284.069 137.776C284.069 134.424 283.407 130.851 281.765 127.819L274.731 131.629C275.581 133.198 276.069 135.376 276.069 137.776H284.069ZM281.826 127.935C280.485 125.255 277.445 121.181 271.643 121.028L271.433 129.026C272.283 129.048 272.854 129.323 273.319 129.707C273.843 130.139 274.301 130.774 274.67 131.513L281.826 127.935ZM271.212 121.04C266.774 121.402 263.995 124.81 262.483 127.89C260.905 131.106 260.116 135.04 260.061 138.674L268.06 138.795C268.101 136.103 268.703 133.375 269.665 131.414C270.693 129.318 271.605 129.035 271.863 129.014L271.212 121.04ZM260.061 138.735V139.214H268.061V138.735H260.061ZM260.061 139.214C260.061 142.178 260.507 145.634 261.861 148.594C263.251 151.632 265.85 154.583 270.141 155.16L271.209 147.232C270.516 147.139 269.808 146.735 269.136 145.267C268.429 143.721 268.061 141.522 268.061 139.214H260.061ZM270.675 155.196H271.25V147.196H270.675V155.196ZM271.25 155.196C276.205 155.196 279.318 152.061 280.798 149.639L273.972 145.468C273.343 146.497 272.431 147.196 271.25 147.196V155.196ZM377.105 103.842L377.171 99.8428L373.105 99.7759V103.842H377.105ZM400.399 104.226L404.382 104.588L404.772 100.297L400.465 100.226L400.399 104.226ZM400.303 105.28L396.319 104.918L396.303 105.099V105.28H400.303ZM383.24 167.396L380.49 164.492L380.487 164.494L383.24 167.396ZM370.108 172.668L370.045 176.668L370.076 176.668H370.108V172.668ZM354.195 157.715L357.848 156.083L354.416 148.401L350.624 155.912L354.195 157.715ZM336.174 173.052L336.139 177.052L336.266 177.053L336.393 177.046L336.174 173.052ZM306.65 107.868L310.627 107.442L310.614 107.326L310.595 107.211L306.65 107.868ZM306.458 106.718L306.065 102.737L301.809 103.158L302.512 107.376L306.458 106.718ZM329.751 104.417L333.735 104.055L333.37 100.041L329.358 100.437L329.751 104.417ZM329.847 105.472H333.847V105.29L333.831 105.11L329.847 105.472ZM332.435 127.711L336.39 127.107L336.388 127.1L336.387 127.092L332.435 127.711ZM341.35 147.937L338.423 145.211L338.381 145.256L338.34 145.303L341.35 147.937ZM344.034 113.524L348.028 113.302L348.028 113.292L348.027 113.282L344.034 113.524ZM343.555 104.801H339.555V104.878L339.558 104.955L343.555 104.801ZM343.555 103.651V99.6505H339.555V103.651H343.555ZM366.465 103.651H370.465V99.6505H366.465V103.651ZM366.082 125.89L362.084 125.739L362.083 125.767L362.083 125.794L366.082 125.89ZM367.711 149.375L370.54 146.546L370.54 146.546L367.711 149.375ZM370.587 149.087L367.784 146.233L367.771 146.246L367.758 146.259L370.587 149.087ZM381.105 104.897V103.842H373.105V104.897H381.105ZM377.039 107.842L400.333 108.225L400.465 100.226L377.171 99.8428L377.039 107.842ZM396.415 103.864L396.319 104.918L404.286 105.642L404.382 104.588L396.415 103.864ZM396.303 105.28C396.303 106.096 396.119 117.534 393.937 130.611C392.847 137.147 391.275 143.984 389.029 150.063C386.763 156.196 383.927 161.237 380.49 164.492L385.991 170.3C390.702 165.839 394.072 159.497 396.533 152.836C399.014 146.121 400.69 138.753 401.828 131.928C404.104 118.285 404.303 106.382 404.303 105.28H396.303ZM380.487 164.494C377.451 167.375 374.109 168.668 370.491 168.668V176.668C376.267 176.668 381.552 174.511 385.993 170.298L380.487 164.494ZM370.491 168.668H370.108V176.668H370.491V168.668ZM370.17 168.669C366.516 168.612 362.116 165.642 357.848 156.083L350.543 159.346C355.093 169.534 361.43 176.533 370.045 176.668L370.17 168.669ZM350.624 155.912C345.902 165.266 340.841 168.79 335.955 169.058L336.393 177.046C345.502 176.547 352.519 169.91 357.766 159.517L350.624 155.912ZM336.209 169.052C332.864 169.022 329.349 166.592 325.795 161.014C322.331 155.578 319.474 148.112 317.201 140.28C312.671 124.669 310.76 108.686 310.627 107.442L302.672 108.294C302.827 109.734 304.798 126.247 309.518 142.51C311.87 150.613 314.98 158.928 319.048 165.313C323.025 171.555 328.604 176.985 336.139 177.052L336.209 169.052ZM310.595 107.211L310.403 106.06L302.512 107.376L302.704 108.526L310.595 107.211ZM306.851 110.699L330.145 108.398L329.358 100.437L306.065 102.737L306.851 110.699ZM325.768 104.78L325.864 105.834L333.831 105.11L333.735 104.055L325.768 104.78ZM325.847 105.472C325.847 105.703 325.884 106.14 325.9 106.345C325.928 106.699 325.969 107.2 326.024 107.826C326.134 109.078 326.298 110.84 326.516 112.942C326.951 117.14 327.606 122.726 328.484 128.329L336.387 127.092C335.539 121.672 334.9 116.234 334.473 112.117C334.26 110.061 334.1 108.342 333.994 107.129C333.941 106.522 333.901 106.044 333.875 105.715C333.838 105.238 333.847 105.289 333.847 105.472H325.847ZM328.481 128.315C330.078 138.768 331.673 144.515 333.063 147.745C333.756 149.356 334.502 150.589 335.373 151.471C336.307 152.415 337.534 153.087 338.954 153.087V145.087C340.182 145.087 340.894 145.676 341.063 145.847C341.171 145.956 340.904 145.728 340.411 144.582C339.429 142.301 337.956 137.359 336.39 127.107L328.481 128.315ZM338.954 153.087C341.05 153.087 342.984 152.144 344.361 150.571L338.34 145.303C338.349 145.293 338.404 145.235 338.521 145.18C338.637 145.125 338.787 145.087 338.954 145.087V153.087ZM344.278 150.663C346.447 148.333 347.394 144.805 347.902 141.586C348.441 138.166 348.609 134.162 348.609 130.107H340.609C340.609 134.009 340.442 137.53 339.999 140.34C339.524 143.353 338.841 144.762 338.423 145.211L344.278 150.663ZM348.609 130.107C348.609 124.524 348.316 118.486 348.028 113.302L340.04 113.746C340.328 118.915 340.609 124.763 340.609 130.107H348.609ZM348.027 113.282C347.834 110.096 347.646 107.084 347.552 104.647L339.558 104.955C339.656 107.502 339.851 110.625 340.042 113.766L348.027 113.282ZM347.555 104.801V103.651H339.555V104.801H347.555ZM343.555 107.651H366.465V99.6505H343.555V107.651ZM362.465 103.651V104.801H370.465V103.651H362.465ZM362.465 104.801C362.465 105.684 362.491 106.558 362.515 107.363C362.539 108.187 362.561 108.943 362.561 109.69H370.561C370.561 108.806 370.535 107.933 370.511 107.128C370.487 106.303 370.465 105.547 370.465 104.801H362.465ZM362.561 109.69C362.561 115.15 362.279 120.583 362.084 125.739L370.079 126.04C370.268 121.035 370.561 115.349 370.561 109.69H362.561ZM362.083 125.794C361.991 129.665 361.794 133.795 361.794 137.297H369.794C369.794 133.897 369.981 130.166 370.08 125.985L362.083 125.794ZM361.794 137.297C361.794 140.314 361.889 143.171 362.215 145.536C362.378 146.72 362.615 147.897 362.978 148.964C363.326 149.99 363.89 151.21 364.883 152.203L370.54 146.546C370.766 146.773 370.706 146.843 370.552 146.388C370.411 145.976 370.264 145.343 370.14 144.443C369.891 142.637 369.794 140.223 369.794 137.297H361.794ZM364.883 152.203C366.22 153.541 367.745 153.854 368.957 153.854V145.854C368.972 145.854 369.251 145.853 369.63 145.986C370.046 146.133 370.354 146.361 370.54 146.546L364.883 152.203ZM368.957 153.854H369.053V145.854H368.957V153.854ZM369.053 153.854C369.843 153.854 370.717 153.71 371.609 153.264C372.408 152.865 373.002 152.329 373.415 151.916L367.758 146.259C367.596 146.421 367.712 146.268 368.031 146.109C368.208 146.02 368.408 145.949 368.616 145.904C368.818 145.861 368.973 145.854 369.053 145.854V153.854ZM373.39 151.941C374.611 150.741 375.466 149.161 376.097 147.653C376.753 146.089 377.297 144.286 377.758 142.382C378.68 138.571 379.349 134.004 379.837 129.389C380.814 120.143 381.105 110.268 381.105 104.897H373.105C373.105 110.07 372.821 119.654 371.881 128.549C371.41 133.005 370.786 137.179 369.982 140.501C369.58 142.162 369.154 143.524 368.719 144.561C368.26 145.656 367.905 146.115 367.784 146.233L373.39 151.941ZM440.18 103.555V99.5547H436.506L436.194 103.215L440.18 103.555ZM460.502 103.555L464.501 103.505L464.452 99.5547H460.502V103.555ZM461.365 172.477L461.433 176.476L465.414 176.408L465.364 172.427L461.365 172.477ZM438.838 172.86L434.849 172.568L434.529 176.934L438.906 176.86L438.838 172.86ZM439.125 168.93L443.115 169.222L443.614 162.397L437.422 165.311L439.125 168.93ZM415.449 170.368L413.422 173.817L413.431 173.822L413.44 173.827L415.449 170.368ZM402.891 137.393H398.891V137.459L398.893 137.525L402.891 137.393ZM415.353 104.322L413.794 100.638L413.773 100.647L413.752 100.656L415.353 104.322ZM439.796 108.06L437.553 111.372L443.203 115.199L443.782 108.399L439.796 108.06ZM439.605 149.471L440.101 153.44L443.543 153.01L443.604 149.541L439.605 149.471ZM439.988 127.711L443.988 127.781L444.059 123.711H439.988V127.711ZM439.509 127.615L442.337 124.787L441.313 123.763L439.871 123.631L439.509 127.615ZM430.978 128.765L428.479 125.642L428.398 125.707L428.32 125.776L430.978 128.765ZM428.102 136.913L424.107 136.718L424.098 136.887L424.104 137.056L428.102 136.913ZM432.128 148.033L429.614 151.145L429.687 151.203L429.762 151.258L432.128 148.033ZM440.18 107.555H460.502V99.5547H440.18V107.555ZM456.502 103.605L457.365 172.527L465.364 172.427L464.501 103.505L456.502 103.605ZM461.296 168.477L438.77 168.861L438.906 176.86L461.433 176.476L461.296 168.477ZM442.827 173.152L443.115 169.222L435.136 168.638L434.849 172.568L442.827 173.152ZM437.422 165.311C434.239 166.808 429.46 168.764 424.651 168.764V176.764C431.345 176.764 437.493 174.119 440.829 172.549L437.422 165.311ZM424.651 168.764C422.175 168.764 419.727 168.227 417.457 166.909L413.44 173.827C417.113 175.96 420.992 176.764 424.651 176.764V168.764ZM417.475 166.919C411.742 163.551 407.458 154.436 406.889 137.26L398.893 137.525C399.474 155.049 403.818 168.174 413.422 173.817L417.475 166.919ZM406.891 137.393C406.891 136.716 406.863 136.081 406.839 135.549C406.814 134.991 406.795 134.555 406.795 134.133H398.795C398.795 134.766 398.824 135.385 398.847 135.905C398.871 136.452 398.891 136.919 398.891 137.393H406.891ZM406.795 134.133C406.795 118.31 410.978 110.597 416.954 107.987L413.752 100.656C403.048 105.331 398.795 117.748 398.795 134.133H406.795ZM416.911 108.005C418.888 107.169 420.944 106.788 422.925 106.788V98.7878C419.923 98.7878 416.802 99.3651 413.794 100.638L416.911 108.005ZM422.925 106.788C428.972 106.788 435.004 109.645 437.553 111.372L442.04 104.748C438.646 102.449 431.066 98.7878 422.925 98.7878V106.788ZM443.782 108.399L444.165 103.894L436.194 103.215L435.811 107.721L443.782 108.399ZM443.604 149.541L443.988 127.781L435.989 127.64L435.605 149.4L443.604 149.541ZM439.988 123.711C439.818 123.711 440.026 123.703 440.278 123.739C440.43 123.761 440.713 123.812 441.055 123.945C441.405 124.083 441.884 124.333 442.337 124.787L436.681 130.444C437.651 131.414 438.779 131.606 439.147 131.659C439.567 131.719 439.966 131.711 439.988 131.711V123.711ZM439.871 123.631C439.158 123.567 437.445 123.327 435.962 123.327V131.327C436.971 131.327 437.751 131.472 439.147 131.599L439.871 123.631ZM435.962 123.327C433.775 123.327 430.957 123.659 428.479 125.642L433.476 131.889C433.873 131.571 434.506 131.327 435.962 131.327V123.327ZM428.32 125.776C425.391 128.379 424.317 132.405 424.107 136.718L432.097 137.108C432.27 133.561 433.113 132.219 433.635 131.755L428.32 125.776ZM424.104 137.056C424.31 142.812 425.757 148.029 429.614 151.145L434.641 144.921C433.514 144.01 432.277 141.751 432.099 136.771L424.104 137.056ZM429.762 151.258C431.936 152.852 434.504 153.662 437.4 153.662V145.662C436.078 145.662 435.195 145.322 434.493 144.807L429.762 151.258ZM437.4 153.662C438.37 153.662 439.401 153.527 440.101 153.44L439.109 145.502C438.274 145.606 437.772 145.662 437.4 145.662V153.662ZM499.971 102.788L499.313 106.733L499.382 106.745L499.451 106.754L499.971 102.788ZM517.225 171.135L513.226 171.044L513.225 171.089V171.135H517.225ZM517.225 172.189L517.208 176.189L521.225 176.206V172.189H517.225ZM495.082 172.093H491.082V176.076L495.065 176.093L495.082 172.093ZM495.178 153.688L491.179 153.583L491.179 153.593L495.178 153.688ZM491.631 122.726L493.966 119.478L493.908 119.437L493.85 119.398L491.631 122.726ZM488.084 122.343L486.819 118.548L486.204 118.753L485.684 119.143L488.084 122.343ZM485.688 138.255L489.683 138.455L489.684 138.438L489.684 138.422L485.688 138.255ZM485.4 171.902V175.902H489.4V171.902H485.4ZM463.257 171.902L459.257 171.839L459.194 175.902H463.257V171.902ZM464.311 103.938L464.289 99.9382L460.373 99.9599L460.312 103.876L464.311 103.938ZM481.566 103.842L485.316 102.45L484.341 99.8268L481.544 99.8423L481.566 103.842ZM482.812 107.197L479.062 108.59L480.614 112.768L484.601 110.775L482.812 107.197ZM499.451 106.754C502.9 107.206 506.499 110.173 509.259 119.06C511.978 127.81 513.417 141.01 513.417 159.057H521.417C521.417 140.773 519.98 126.605 516.899 116.687C513.86 106.905 508.736 99.9031 500.491 98.8218L499.451 106.754ZM513.417 159.057C513.417 162.836 513.322 166.812 513.226 171.044L521.224 171.226C521.32 167.022 521.417 162.946 521.417 159.057H513.417ZM513.225 171.135V172.189H521.225V171.135H513.225ZM517.242 168.189L495.099 168.093L495.065 176.093L517.208 176.189L517.242 168.189ZM499.082 172.093V165.862H491.082V172.093H499.082ZM499.082 165.862C499.082 161.732 499.082 157.754 499.177 153.784L491.179 153.593C491.082 157.675 491.082 161.749 491.082 165.862H499.082ZM499.176 153.794C499.272 150.162 499.369 146.465 499.369 142.952H491.369C491.369 146.341 491.275 149.93 491.179 153.583L499.176 153.794ZM499.369 142.952C499.369 137.976 499.204 133.215 498.603 129.349C498.303 127.416 497.871 125.553 497.22 123.935C496.585 122.358 495.598 120.652 493.966 119.478L489.296 125.974C489.197 125.903 489.445 126.043 489.798 126.922C490.136 127.76 490.447 128.964 490.698 130.578C491.2 133.806 491.369 138.056 491.369 142.952H499.369ZM493.85 119.398C492.863 118.74 491.425 118.055 489.618 118.055V126.055C489.491 126.055 489.396 126.03 489.351 126.014C489.314 126.001 489.334 126.002 489.412 126.054L493.85 119.398ZM489.618 118.055C488.573 118.055 487.65 118.271 486.819 118.548L489.349 126.138C489.513 126.083 489.6 126.063 489.635 126.057C489.664 126.051 489.652 126.055 489.618 126.055V118.055ZM485.684 119.143C484.216 120.244 483.538 122.122 483.048 124.385C482.498 126.929 481.983 131.098 481.691 138.089L489.684 138.422C489.968 131.609 490.459 127.965 490.868 126.076C491.337 123.905 491.569 124.73 490.484 125.543L485.684 119.143ZM481.693 138.056C481.401 143.9 481.304 150.491 481.304 156.372H489.304C489.304 150.559 489.4 144.114 489.683 138.455L481.693 138.056ZM481.304 156.372C481.304 157.897 481.329 159.367 481.353 160.744C481.377 162.133 481.4 163.412 481.4 164.616H489.4C489.4 163.328 489.375 161.972 489.352 160.605C489.328 159.225 489.304 157.819 489.304 156.372H481.304ZM481.4 164.616V171.902H489.4V164.616H481.4ZM485.4 167.902H463.257V175.902H485.4V167.902ZM467.257 171.964L468.311 104L460.312 103.876L459.257 171.839L467.257 171.964ZM464.334 107.938L481.588 107.842L481.544 99.8423L464.289 99.9382L464.334 107.938ZM477.816 105.235L479.062 108.59L486.562 105.805L485.316 102.45L477.816 105.235ZM484.601 110.775C485.83 110.161 488.103 109.113 490.703 108.228C493.361 107.323 496.063 106.692 498.245 106.692V98.692C494.772 98.692 491.1 99.6422 488.125 100.655C485.094 101.687 482.478 102.892 481.023 103.62L484.601 110.775ZM498.245 106.692C498.873 106.692 499.118 106.701 499.313 106.733L500.628 98.8422C499.673 98.6831 498.768 98.692 498.245 98.692V106.692ZM537.708 73.4552L540.536 70.6268L540.536 70.6268L537.708 73.4552ZM537.708 87.7381L534.88 84.9097L534.88 84.9097L537.708 87.7381ZM530.519 74.4836C532.154 74.4836 533.721 75.1252 534.88 76.2837L540.536 70.6268C537.861 67.951 534.251 66.4836 530.519 66.4836V74.4836ZM534.88 76.2837C536.067 77.4709 536.68 78.9539 536.68 80.5487H544.68C544.68 76.7756 543.184 73.2739 540.536 70.6268L534.88 76.2837ZM536.68 80.5487C536.68 82.184 536.038 83.7512 534.88 84.9097L540.536 90.5665C543.212 87.8907 544.68 84.2815 544.68 80.5487H536.68ZM534.88 84.9097C533.721 86.0682 532.154 86.7097 530.519 86.7097V94.7097C534.251 94.7097 537.861 93.2424 540.536 90.5665L534.88 84.9097ZM530.519 86.7097C527.217 86.7097 524.454 83.9488 524.454 80.5487H516.454C516.454 88.2682 522.701 94.7097 530.519 94.7097V86.7097ZM524.454 80.5487C524.454 77.1981 527.168 74.4836 530.519 74.4836V66.4836C522.75 66.4836 516.454 72.7798 516.454 80.5487H524.454Z" fill="black" mask="url(#path-1-outside-1_40_276)"/>
</g>
<path d="M78.95 35.1619C78.95 37.2734 78.1335 39.1768 76.5005 40.8722C74.8675 42.5677 72.7456 43.3842 70.1349 43.3217L69.3392 43.2749L68.6059 43.0565C68.1275 42.8069 67.8882 42.4532 67.8882 41.9956C67.8882 41.8188 67.9246 41.6627 67.9975 41.5275C68.0703 41.3819 68.1743 41.2415 68.3095 41.1063C68.6631 40.9086 69.0584 40.8566 69.4952 40.9503L70.1505 41.0127C72.0435 41.0127 73.6037 40.4198 74.8311 39.234C75.6008 38.4643 76.1208 37.4918 76.3913 36.3165C76.4745 35.9212 76.5161 35.5364 76.5161 35.1619C76.5161 33.5185 75.9388 32.1144 74.7843 30.9494C73.6297 29.7845 72.236 29.202 70.603 29.202C69.1156 29.202 67.7582 29.7949 66.5309 30.9806C65.99 31.5111 65.5688 32.0884 65.2671 32.7124C64.9759 33.3261 64.8303 34.023 64.8303 34.8031C64.8303 37.3306 64.0814 39.3849 62.5836 40.9659C61.0962 42.5364 59.0992 43.3217 56.5925 43.3217C54.0129 43.3217 51.8703 42.3284 50.1645 40.3418C49.5196 39.6033 49.1972 38.9896 49.1972 38.5008C49.1972 37.8247 49.53 37.4866 50.1957 37.4866C50.9654 37.4866 51.5634 37.9131 51.9899 38.766C53.2069 40.2222 54.741 40.9503 56.5925 40.9503C58.2879 40.9503 59.6972 40.4042 60.8206 39.3121C61.9543 38.2199 62.5212 36.8366 62.5212 35.1619C62.5212 33.5393 61.9335 32.1508 60.7582 30.9962C59.5828 29.8417 58.1943 29.2644 56.5925 29.2644C54.6474 29.2644 53.1444 29.8937 52.0835 31.1523L51.6467 31.6983C51.4802 32.2184 51.1266 32.4784 50.5857 32.4784C49.7848 32.4784 49.3844 31.9948 49.3844 31.0274C49.4572 30.6218 49.5924 30.3098 49.79 30.0913L50.0709 29.8417C51.4646 27.8759 53.6385 26.8929 56.5925 26.8929C58.059 26.8929 59.4476 27.2882 60.7582 28.0787C62.0687 28.8588 63.0308 29.7949 63.6445 30.887L64.2218 29.8729L64.8147 29.28C66.4685 27.6886 68.4083 26.8929 70.6342 26.8929C72.8913 26.8929 74.8415 27.7094 76.4849 29.3424C78.1283 30.9754 78.95 32.9153 78.95 35.1619ZM79.4805 30.6062C80.1461 29.7533 80.999 28.968 82.0392 28.2503C83.3393 27.3558 84.8371 26.9085 86.5325 26.9085C89.2889 26.9085 91.4679 28.0683 93.0697 30.3878C94.089 31.8959 94.5987 33.4509 94.5987 35.0527C94.5987 37.9963 93.4182 40.2378 91.0571 41.7772C89.4137 42.8381 87.7703 43.3685 86.1269 43.3685C85.4716 43.3685 84.8423 43.2853 84.239 43.1189L83.615 42.9005L83.0377 42.5885C82.3824 42.3804 82.0548 41.98 82.0548 41.3871C82.0548 41.1583 82.1744 40.9138 82.4136 40.6538C82.6528 40.3938 82.9129 40.2638 83.1937 40.2638C83.4641 40.2638 83.6358 40.3054 83.7086 40.3886L84.9879 40.8878C85.2168 40.9607 85.586 40.9971 86.0957 40.9971C87.7495 40.9971 89.1796 40.4198 90.3862 39.2652C91.5927 38.1107 92.196 36.7065 92.196 35.0527C92.196 33.7526 91.8632 32.6188 91.1975 31.6515C90.7294 30.965 90.0429 30.4034 89.138 29.9665C88.2435 29.5297 87.3646 29.3112 86.5013 29.3112C85.3364 29.3112 84.2026 29.6441 83.1001 30.3098C82.2784 30.9338 81.6179 31.6463 81.1187 32.4472L80.8534 32.8529L79.4805 30.6062ZM127.129 35.1619C127.129 37.2734 126.312 39.1768 124.679 40.8722C123.046 42.5677 120.924 43.3842 118.314 43.3217L117.518 43.2749L116.785 43.0565C116.306 42.8069 116.067 42.4532 116.067 41.9956C116.067 41.8188 116.103 41.6627 116.176 41.5275C116.249 41.3819 116.353 41.2415 116.488 41.1063C116.842 40.9086 117.237 40.8566 117.674 40.9503L118.329 41.0127C120.222 41.0127 121.782 40.4198 123.01 39.234C123.779 38.4643 124.3 37.4918 124.57 36.3165C124.653 35.9212 124.695 35.5364 124.695 35.1619C124.695 33.5185 124.118 32.1144 122.963 30.9494C121.808 29.7845 120.415 29.202 118.782 29.202C117.294 29.202 115.937 29.7949 114.71 30.9806C114.169 31.5111 113.747 32.0884 113.446 32.7124C113.155 33.3261 113.009 34.023 113.009 34.8031C113.009 37.3306 112.26 39.3849 110.762 40.9659C109.275 42.5364 107.278 43.3217 104.771 43.3217C102.192 43.3217 100.049 42.3284 98.3432 40.3418C97.6983 39.6033 97.3758 38.9896 97.3758 38.5008C97.3758 37.8247 97.7087 37.4866 98.3744 37.4866C99.1441 37.4866 99.7421 37.9131 100.169 38.766C101.386 40.2222 102.92 40.9503 104.771 40.9503C106.467 40.9503 107.876 40.4042 108.999 39.3121C110.133 38.2199 110.7 36.8366 110.7 35.1619C110.7 33.5393 110.112 32.1508 108.937 30.9962C107.762 29.8417 106.373 29.2644 104.771 29.2644C102.826 29.2644 101.323 29.8937 100.262 31.1523L99.8253 31.6983C99.6589 32.2184 99.3053 32.4784 98.7644 32.4784C97.9635 32.4784 97.5631 31.9948 97.5631 31.0274C97.6359 30.6218 97.7711 30.3098 97.9687 30.0913L98.2495 29.8417C99.6433 27.8759 101.817 26.8929 104.771 26.8929C106.238 26.8929 107.626 27.2882 108.937 28.0787C110.247 28.8588 111.21 29.7949 111.823 30.887L112.4 29.8729L112.993 29.28C114.647 27.6886 116.587 26.8929 118.813 26.8929C121.07 26.8929 123.02 27.7094 124.664 29.3424C126.307 30.9754 127.129 32.9153 127.129 35.1619ZM125.366 19.6068C125.366 21.3959 124.747 22.9145 123.509 24.1626C122.271 25.4108 120.758 26.0348 118.969 26.0348C117.211 26.0348 115.718 25.4056 114.491 24.147C113.253 22.878 112.635 21.3647 112.635 19.6068C112.635 17.8178 113.238 16.294 114.444 15.0355C115.64 13.7665 117.149 13.1321 118.969 13.1321C120.737 13.1321 122.245 13.7821 123.493 15.0823C124.742 16.3721 125.366 17.8802 125.366 19.6068ZM123.01 19.6068C123.01 18.5043 122.62 17.5318 121.84 16.6893C121.049 15.8468 120.092 15.4255 118.969 15.4255C117.804 15.4255 116.837 15.8312 116.067 16.6425C115.297 17.4538 114.912 18.4419 114.912 19.6068C114.912 20.7406 115.313 21.7131 116.114 22.5244C116.915 23.3357 117.866 23.7414 118.969 23.7414C120.092 23.7414 121.049 23.3357 121.84 22.5244C122.62 21.7131 123.01 20.7406 123.01 19.6068ZM117.939 45.272C117.939 44.4711 118.329 44.0706 119.109 44.0706C119.848 44.1226 120.222 44.5231 120.233 45.272V53.1509H122.885C123.613 53.1509 123.977 53.5254 123.977 54.2743C123.977 55.0648 123.613 55.46 122.885 55.46H119.109C118.329 55.46 117.939 55.0648 117.939 54.2743V45.272ZM146.678 35.0215C146.678 37.289 145.867 39.234 144.244 40.8566C142.621 42.4792 140.676 43.2905 138.409 43.2905C136.131 43.2905 134.202 42.4844 132.621 40.8722C131.04 39.2496 130.249 37.2994 130.249 35.0215C130.249 32.702 131.034 30.7622 132.605 29.202C134.176 27.6418 136.11 26.8617 138.409 26.8617C140.676 26.8617 142.621 27.6626 144.244 29.2644C145.867 30.8662 146.678 32.7853 146.678 35.0215ZM144.306 35.0215C144.306 33.4509 143.719 32.0936 142.543 30.9494C141.378 29.8053 140 29.2332 138.409 29.2332C136.755 29.2332 135.377 29.7793 134.274 30.8714C133.172 31.9636 132.621 33.3469 132.621 35.0215C132.621 36.6545 133.182 38.0483 134.306 39.2028C135.429 40.347 136.797 40.919 138.409 40.919C140.031 40.919 141.42 40.3366 142.575 39.1716C143.729 38.0067 144.306 36.6233 144.306 35.0215ZM165.743 37.9079C165.743 39.7177 165.203 41.0907 164.121 42.0268C163.757 42.2868 163.153 42.5468 162.311 42.8069C161.801 42.9213 161.396 43.0097 161.094 43.0721V54.6175C161.094 55.4288 160.683 55.8345 159.861 55.8345C159.56 55.8345 159.295 55.7201 159.066 55.4912C158.837 55.2624 158.723 54.9712 158.723 54.6175L158.754 43.1657L157.162 43.2437C155.685 43.2229 154.604 43.1189 153.917 42.9317C152.773 42.6093 151.878 42.0996 151.234 41.4027C150.537 40.4458 150.188 39.4109 150.188 38.2979C150.188 37.4346 150.428 36.6181 150.906 35.8484C151.332 35.2556 151.842 34.8239 152.435 34.5535C153.028 34.283 153.657 34.1478 154.323 34.1478C154.988 34.1478 155.644 34.2622 156.289 34.4911C156.934 34.7095 157.552 35.0215 158.145 35.4272C158.811 35.8952 159.388 36.5609 159.877 37.4242C160.22 38.0379 160.496 38.6464 160.704 39.2496C160.964 39.9673 161.104 40.5394 161.125 40.9659C161.333 40.9555 161.609 40.867 161.952 40.7006C162.41 40.4198 162.763 40.0869 163.013 39.7021C163.263 39.3173 163.403 38.7816 163.434 38.0951C163.361 37.5958 163.133 37.055 162.748 36.4725C162.363 35.89 161.921 35.4584 161.422 35.1775C161.016 34.9279 160.59 34.7459 160.142 34.6315C159.695 34.5171 159.061 34.3506 158.239 34.1322C157.386 33.9034 156.642 33.6486 156.008 33.3677C155.384 33.0765 154.869 32.5928 154.463 31.9168C154.193 31.4903 154.058 30.9702 154.058 30.3566C154.058 29.5557 154.364 28.812 154.978 28.1255C155.779 27.3142 156.819 26.9085 158.098 26.9085C158.733 26.9085 159.305 26.9813 159.815 27.127C160.324 27.2726 160.824 27.5534 161.312 27.9695C161.978 28.5831 162.379 28.9836 162.514 29.1708C162.618 29.6077 162.535 30.0029 162.264 30.3566C162.004 30.6998 161.63 30.8402 161.141 30.7778C160.912 30.7778 160.47 30.4502 159.815 29.7949C159.44 29.4933 158.868 29.3424 158.098 29.3424C157.443 29.3424 156.97 29.4881 156.679 29.7793C156.512 30.0497 156.429 30.2681 156.429 30.4346L156.476 30.731C156.59 31.0222 156.871 31.2771 157.318 31.4955C157.766 31.7035 158.317 31.8855 158.972 32.0416C159.627 32.1872 160.272 32.338 160.907 32.494C161.541 32.65 162.108 32.8893 162.607 33.2117C163.471 33.7422 164.178 34.4183 164.729 35.24C165.281 36.0617 165.619 36.951 165.743 37.9079ZM158.941 41.1531C158.931 40.8202 158.91 40.581 158.879 40.4354C158.858 40.2794 158.795 40.113 158.691 39.9361C158.525 39.5201 158.223 38.9948 157.786 38.3603C157.433 37.9339 157.152 37.6218 156.944 37.4242C156.049 36.8314 155.155 36.5089 154.26 36.4569C153.605 36.5089 153.158 36.7325 152.919 37.1278C152.773 37.3878 152.674 37.627 152.622 37.8455C152.581 38.0535 152.56 38.2355 152.56 38.3915C152.56 38.9324 152.747 39.4421 153.121 39.9205C153.319 40.1806 153.85 40.4458 154.713 40.7162C155.587 40.9867 156.439 41.1219 157.272 41.1219L158.941 41.1531ZM163.871 17.3914C163.871 18.1091 163.455 18.5511 162.623 18.7175C161.926 18.7175 161.578 18.3847 161.578 17.719C161.578 17.0533 161.193 16.5125 160.423 16.0964C159.653 15.67 158.957 15.4567 158.332 15.4567C156.658 15.4567 155.68 16.2368 155.399 17.797C155.399 19.2532 155.997 20.517 157.194 21.5883C157.693 22.0459 158.468 22.5348 159.518 23.0549L161.063 23.8194C161.416 23.9858 161.593 24.3082 161.593 24.7867C161.593 25.494 161.182 25.9204 160.361 26.066L159.799 25.8632L157.864 24.8803C156.023 23.8922 154.718 22.6908 153.948 21.2763C153.387 20.2569 153.106 18.9932 153.106 17.485C153.324 16.1744 153.922 15.1239 154.9 14.3334C155.867 13.5325 157.012 13.1321 158.332 13.1321C159.674 13.1321 160.881 13.5221 161.952 14.3022C163.023 15.0719 163.663 16.1016 163.871 17.3914Z" fill="#FF7051"/>
<path d="M247.376 19.2411H267.546V22.037H247.376V19.2411ZM247.456 29.1065H265.11V31.8225H247.456V29.1065ZM255.524 13.4497H258.439V30.5444H255.524V13.4497ZM245.818 19.2411H248.694V29.3861C248.694 35.5769 248.015 44.324 243.502 50.1953C242.982 49.676 241.704 48.9571 240.985 48.6775C245.339 43.0858 245.818 35.1376 245.818 29.3461V19.2411ZM266.707 19.2411H267.226L267.746 19.1213L269.902 19.7204C268.864 22.5961 267.626 25.7914 266.468 27.8284L263.911 26.9896C264.87 25.1523 265.948 22.1967 266.707 19.7204V19.2411ZM252.089 30.6642C254.965 38.9319 261.235 45.2825 270.302 47.6391C269.583 48.2781 268.744 49.4364 268.305 50.1953C258.999 47.3595 252.768 40.6494 249.533 31.4231L252.089 30.6642ZM235.354 16.0059L237.071 13.8491C239.388 15.0074 242.503 16.8846 243.981 18.1627L242.223 20.5991C240.746 19.2411 237.71 17.2441 235.354 16.0059ZM233.157 26.7899L234.874 24.5932C237.231 25.6316 240.386 27.389 241.944 28.6272L240.226 31.1035C238.709 29.8254 235.593 27.9881 233.157 26.7899ZM234.155 47.8388C236.033 44.7633 238.709 39.5311 240.706 34.9778L243.022 36.7751C241.225 41.0089 238.828 45.9615 236.791 49.676L234.155 47.8388ZM263.991 29.1065H264.59L265.189 28.9867L267.027 29.8254C264.071 40.889 256.882 47.1997 248.294 50.2752C247.895 49.5562 246.976 48.358 246.377 47.7988C254.725 45.0828 261.515 39.3713 263.991 29.6657V29.1065ZM287.317 19.2411H307.487V22.037H287.317V19.2411ZM287.397 29.1065H305.05V31.8225H287.397V29.1065ZM295.465 13.4497H298.38V30.5444H295.465V13.4497ZM285.759 19.2411H288.635V29.3861C288.635 35.5769 287.956 44.324 283.442 50.1953C282.923 49.676 281.645 48.9571 280.926 48.6775C285.28 43.0858 285.759 35.1376 285.759 29.3461V19.2411ZM306.648 19.2411H307.167L307.687 19.1213L309.843 19.7204C308.805 22.5961 307.567 25.7914 306.408 27.8284L303.852 26.9896C304.811 25.1523 305.889 22.1967 306.648 19.7204V19.2411ZM292.03 30.6642C294.905 38.9319 301.176 45.2825 310.243 47.6391C309.524 48.2781 308.685 49.4364 308.246 50.1953C298.939 47.3595 292.709 40.6494 289.473 31.4231L292.03 30.6642ZM275.294 16.0059L277.012 13.8491C279.328 15.0074 282.444 16.8846 283.922 18.1627L282.164 20.5991C280.686 19.2411 277.651 17.2441 275.294 16.0059ZM273.098 26.7899L274.815 24.5932C277.172 25.6316 280.327 27.389 281.885 28.6272L280.167 31.1035C278.649 29.8254 275.534 27.9881 273.098 26.7899ZM274.096 47.8388C275.973 44.7633 278.649 39.5311 280.647 34.9778L282.963 36.7751C281.166 41.0089 278.769 45.9615 276.732 49.676L274.096 47.8388ZM303.932 29.1065H304.531L305.13 28.9867L306.968 29.8254C304.012 40.889 296.823 47.1997 288.235 50.2752C287.836 49.5562 286.917 48.358 286.318 47.7988C294.666 45.0828 301.456 39.3713 303.932 29.6657V29.1065ZM315.675 16.1656H347.388V19.1213H315.675V16.1656ZM317.392 30.1849H345.99V33.1006H317.392V30.1849ZM313.638 45.4822H349.465V48.3979H313.638V45.4822ZM329.894 16.9245H333.049V47.3595H329.894V16.9245Z" fill="#F29846"/>
<path d="M420.128 43.9971V26.8704H422.524V30.1935L421.981 30.0657C422.407 28.958 423.1 28.0846 424.058 27.4456C425.038 26.8065 426.167 26.487 427.445 26.487C428.659 26.487 429.746 26.7639 430.704 27.3177C431.684 27.8716 432.451 28.6385 433.005 29.6183C433.58 30.5769 433.868 31.6633 433.868 32.8775V43.9971H431.471V33.8041C431.471 32.7604 431.279 31.8763 430.896 31.1521C430.534 30.4278 430.012 29.874 429.33 29.4905C428.67 29.0858 427.903 28.8834 427.03 28.8834C426.156 28.8834 425.379 29.0858 424.697 29.4905C424.016 29.874 423.483 30.4385 423.1 31.184C422.716 31.9083 422.524 32.7817 422.524 33.8041V43.9971H420.128ZM425.24 23.5473V20.3521H428.436V23.5473H425.24ZM444.516 44.3805C443.323 44.3805 442.236 44.1036 441.256 43.5497C440.277 42.9746 439.499 42.1864 438.924 41.1852C438.37 40.1627 438.093 38.9911 438.093 37.6704V26.8704H440.49V37.3828C440.49 38.2988 440.671 39.1083 441.033 39.8113C441.416 40.4929 441.938 41.0255 442.598 41.4089C443.28 41.7923 444.058 41.984 444.931 41.984C445.804 41.984 446.582 41.7923 447.264 41.4089C447.945 41.0042 448.478 40.4397 448.861 39.7154C449.245 38.9698 449.436 38.0858 449.436 37.0633V26.8704H451.833V43.9971H449.436V40.674L449.98 40.8018C449.575 41.9095 448.882 42.7829 447.903 43.4219C446.923 44.061 445.794 44.3805 444.516 44.3805ZM443.557 50.0681V46.8728H446.752V50.0681H443.557ZM464.781 44.3805C463.162 44.3805 461.693 43.9971 460.372 43.2302C459.051 42.442 457.997 41.3769 457.209 40.0349C456.442 38.6716 456.058 37.1272 456.058 35.4018C456.058 33.6976 456.442 32.1746 457.209 30.8325C457.975 29.4905 459.009 28.4361 460.308 27.6692C461.629 26.8811 463.12 26.487 464.781 26.487C466.443 26.487 467.923 26.8704 469.223 27.6373C470.544 28.4041 471.577 29.4586 472.322 30.8006C473.089 32.1426 473.473 33.6763 473.473 35.4018C473.473 37.1485 473.078 38.7036 472.29 40.0669C471.502 41.4089 470.448 42.4633 469.127 43.2302C467.828 43.9971 466.379 44.3805 464.781 44.3805ZM464.781 41.984C465.932 41.984 466.965 41.6965 467.881 41.1213C468.818 40.5462 469.553 39.758 470.086 38.7568C470.639 37.7556 470.916 36.6373 470.916 35.4018C470.916 34.1663 470.639 33.0586 470.086 32.0787C469.553 31.0988 468.818 30.3213 467.881 29.7462C466.965 29.171 465.932 28.8834 464.781 28.8834C463.631 28.8834 462.587 29.171 461.65 29.7462C460.734 30.3213 459.999 31.0988 459.445 32.0787C458.891 33.0586 458.614 34.1663 458.614 35.4018C458.614 36.6373 458.891 37.7556 459.445 38.7568C459.999 39.758 460.734 40.5462 461.65 41.1213C462.587 41.6965 463.631 41.984 464.781 41.984ZM463.184 50.0681V46.8728H466.379V50.0681H463.184Z" fill="#23A094"/>
<defs>
<filter id="filter0_d_40_276" x="13.3606" y="66.9369" width="535.307" height="114.103" filterUnits="userSpaceOnUse" color-interpolation-filters="sRGB">
<feFlood flood-opacity="0" result="BackgroundImageFix"/>
<feColorMatrix in="SourceAlpha" type="matrix" values="0 0 0 0 0 0 0 0 0 0 0 0 0 0 0 0 0 0 127 0" result="hardAlpha"/>
<feOffset dx="7.98817" dy="7.98817"/>
<feComposite in2="hardAlpha" operator="out"/>
<feColorMatrix type="matrix" values="0 0 0 0 0 0 0 0 0 0 0 0 0 0 0 0 0 0 1 0"/>
<feBlend mode="normal" in2="BackgroundImageFix" result="effect1_dropShadow_40_276"/>
<feBlend mode="normal" in="SourceGraphic" in2="effect1_dropShadow_40_276" result="shape"/>
</filter>
</defs>
</svg>
